<?xml version="1.0" standalone="no"?>
<!DOCTYPE svg PUBLIC "-//W3C//DTD SVG 20010904//EN"
 "http://www.w3.org/TR/2001/REC-SVG-20010904/DTD/svg10.dtd">
<svg version="1.0" xmlns="http://www.w3.org/2000/svg"
 viewBox="173 153 290 359"
 preserveAspectRatio="xMidYMid meet">
<metadata>
Created by potrace 1.16, written by Peter Selinger 2001-2019
</metadata>
<g transform="translate(0.000000,704.000000) scale(1.000000,-1.000000)"
fill="currentColor" stroke="none">
<path d="M273 529 c-4 -4 -8 -9 -9 -10 -2 -5 -3 -3 -3 3 0 5 -1 7 -3 7 -2 -1
-7 -10 -7 -14 0 -3 -1 -4 -3 -3 -2 1 -3 0 -4 0 -1 -2 -1 -12 0 -14 1 -2 2 -5
2 -9 1 -4 2 -7 3 -9 3 -5 3 -7 -2 -11 -3 -3 -4 -6 0 -7 3 0 4 -2 3 -4 -1 0 -2
-1 -3 -1 -1 0 -10 -5 -12 -7 -1 -1 -9 -1 -10 0 0 1 1 2 2 3 2 1 2 3 2 8 0 7 0
7 -4 11 -5 5 -5 5 -12 6 -9 0 -10 0 -9 -4 0 -2 2 -3 11 -3 4 -1 7 -1 7 -2 2
-3 1 -11 -1 -15 -2 -4 -5 -5 -4 -2 2 5 0 8 -3 8 -3 0 -6 -4 -6 -8 0 -4 -2 -7
-2 -5 -1 1 -1 2 -1 3 -1 3 -3 5 -7 3 -3 -1 -4 -4 -1 -6 3 -3 3 -5 0 -5 -4 1
-6 0 -7 -2 -2 -3 1 -6 5 -6 3 0 4 -1 6 -3 2 -3 3 -4 3 -11 l0 -7 3 -1 c3 0 3
0 4 3 1 6 3 4 4 -3 1 -4 3 -9 4 -11 1 -4 2 -8 2 -11 1 -3 1 -7 2 -9 2 -4 1 -5
-5 -5 -2 0 -3 -1 -4 -2 -1 -1 -2 -2 -4 -2 -2 0 -4 -1 -6 -4 -6 -8 -3 -10 14
-13 4 0 5 -1 6 -3 1 -2 2 -3 4 -4 4 0 4 -1 3 -4 -1 -3 -1 -3 1 -5 l3 -2 -4 1
c-8 1 -18 0 -22 -3 -1 -1 -3 -2 -4 -3 -4 -1 -5 0 -5 4 0 2 0 3 -2 3 -3 0 -4
-8 -1 -10 3 -3 3 -4 0 -6 -3 -3 -5 -2 -5 2 0 1 -1 3 -2 3 -2 0 -2 -1 -2 -6 0
-7 2 -10 6 -12 2 0 2 -1 1 -2 -1 -3 0 -3 6 -5 3 0 6 -2 6 -2 2 -1 6 -1 8 0 1
1 6 2 8 1 3 -2 -1 -8 -6 -9 -2 0 -2 -1 -2 -5 0 -3 0 -4 3 -5 1 0 4 -1 4 -2 2
-1 5 -2 9 -2 4 0 7 -1 7 -2 1 -1 1 -6 1 -12 -1 -12 -2 -13 -5 -7 -2 5 -3 6 -6
6 -3 0 -3 -1 -4 -4 -1 -3 -2 -4 -5 -4 -6 0 -8 -6 -4 -7 5 -2 7 -3 8 -7 2 -5 8
-12 13 -14 2 -1 3 -2 3 -5 0 -3 1 -3 4 -3 2 0 3 0 4 3 1 2 2 3 2 3 1 0 2 -3 4
-7 3 -5 4 -6 8 -8 8 -4 13 -5 15 -2 2 1 4 2 6 2 3 1 5 2 6 4 2 1 5 4 8 6 3 2
8 6 10 8 6 6 9 7 12 5 2 -2 4 -2 8 -1 2 1 6 2 9 2 3 1 7 2 8 3 2 2 4 2 7 1 3
0 5 -1 5 -1 0 -2 -8 -4 -9 -3 0 0 0 0 0 -1 1 -1 -1 -2 -6 -3 -5 -1 -6 -2 0 -3
3 0 4 0 5 2 1 2 2 2 6 2 6 0 7 1 9 6 0 1 3 1 12 1 8 0 12 1 13 2 1 1 2 1 4 0
3 -1 8 -1 13 0 2 1 6 2 9 1 8 -1 16 1 19 4 1 1 4 2 5 2 2 0 3 1 4 2 1 0 2 1 2
1 2 0 7 6 7 8 0 1 -1 2 -2 2 -2 0 -3 -1 -3 -2 0 -1 0 -2 -1 -2 -1 0 -2 -1 -3
-3 -4 -4 -7 -2 -5 4 2 5 2 5 6 5 3 1 4 4 1 5 -2 1 -5 1 -8 1 -4 0 -5 0 -6 2 0
1 -2 1 -6 1 -4 0 -5 0 -5 1 0 2 2 3 5 3 2 0 3 1 4 2 1 0 2 1 3 1 3 0 8 2 9 5
2 3 0 6 -6 10 -6 4 -8 8 -7 10 1 1 1 3 1 4 0 2 1 4 4 7 5 4 6 5 8 2 1 -1 2 -1
2 0 1 1 0 2 -1 4 -2 3 -3 4 -5 4 -1 0 -4 1 -5 2 -1 1 -2 2 -3 2 -4 0 -4 0 -4
5 0 3 0 4 2 4 6 0 8 5 4 9 -2 1 -3 3 -3 3 0 1 2 3 5 4 4 2 5 2 5 4 -1 1 -1 3
-2 4 0 1 0 2 1 3 1 0 3 2 5 3 1 2 3 4 4 4 3 2 2 5 -1 5 -3 0 -4 2 -2 4 1 1 1
2 -2 5 -2 1 -4 4 -5 5 -1 1 -2 2 -2 2 -2 0 -4 3 -5 7 0 2 -1 4 -2 4 -6 3 -8 4
-8 5 0 1 4 3 10 5 4 1 5 2 5 4 0 3 -5 9 -9 11 -1 1 -2 1 -2 2 0 0 2 2 5 3 2 2
4 4 4 5 0 1 -2 3 -5 5 l-5 4 -10 0 -10 -1 0 3 c-1 2 -2 4 -5 5 -3 1 -5 3 -4 3
0 0 2 1 4 1 8 1 16 8 15 11 -1 2 -4 4 -9 6 -1 1 -4 2 -5 2 -1 1 -3 2 -3 2 -4
-1 -9 -3 -13 -5 -2 -1 -5 -2 -5 -2 -2 0 -3 3 -1 4 2 1 1 3 -1 3 -1 0 -2 -1 -7
-6 -4 -3 -7 -4 -8 -3 -1 1 -2 1 -3 1 -3 0 -4 3 -2 5 1 1 2 3 2 4 0 1 1 2 2 3
1 1 2 2 2 2 0 1 1 2 2 3 1 0 2 3 2 7 1 3 2 6 2 6 2 2 1 5 -1 6 -1 0 -2 -1 -4
-3 -2 -2 -3 -3 -3 -7 0 -3 -1 -6 -2 -7 -1 -2 -2 -3 -2 -4 0 0 -1 -1 -2 -2 -1
-1 -2 -3 -2 -4 0 -1 -1 -3 -2 -3 -1 -1 -2 -3 -2 -4 0 -3 -2 -5 -4 -5 0 0 -2
-1 -4 -2 -2 -2 -3 -2 -4 -1 -1 1 -2 2 -2 3 0 2 -4 8 -7 11 -3 3 -2 8 1 11 1 1
2 3 2 5 0 3 1 5 3 7 3 3 3 5 0 5 -1 0 -4 -1 -7 -3 -3 -1 -5 -2 -6 -2 0 1 1 3
3 4 2 2 3 4 3 5 0 1 0 3 1 4 1 2 1 3 0 4 0 2 -1 4 -1 7 -1 4 -1 4 -6 2 -1 0
-2 0 -2 3 -1 2 -2 3 -3 3 -1 0 -2 0 -2 -1 0 -1 -13 -17 -14 -17 -1 0 -1 2 -1
4 0 3 0 3 -2 3 -2 0 -3 -1 -4 -1 -1 -2 -5 -3 -5 -1 0 1 1 2 1 3 1 1 2 4 3 6 0
5 0 5 -3 5 -2 0 -4 -2 -10 -7z m34 -79 c0 -2 -5 -7 -10 -10 -2 -1 -5 -2 -5 -4
-1 -2 -6 -5 -9 -5 -2 0 -7 4 -7 6 1 1 4 1 7 1 l7 0 7 7 c7 7 10 8 10 5z m32 1
c0 0 0 -1 -1 -1 -1 -1 -1 0 -1 0 0 1 0 2 1 2 1 0 1 0 1 -1z m12 -5 c0 -3 -3
-9 -5 -9 -1 0 -4 5 -4 7 0 0 2 1 4 3 4 5 6 5 5 -1z m15 0 c1 -1 1 -1 0 -5 -3
-6 -2 -6 18 -5 7 1 11 1 11 0 0 -1 -2 -3 -5 -3 -1 0 -3 -1 -4 -2 -1 -1 -3 -2
-5 -2 -1 -1 -3 -4 -3 -6 0 -1 1 -2 2 -3 2 -2 2 -4 0 -4 -1 0 -2 -1 -3 -1 -3
-3 -10 -6 -13 -6 -2 0 -5 1 -8 4 -5 4 -12 5 -23 5 l-6 0 2 3 c2 2 4 6 5 8 3 6
4 7 5 6 1 -1 1 -3 1 -4 0 -3 2 -4 5 -4 3 0 8 4 8 6 0 1 1 2 1 3 1 1 2 3 3 5 0
2 1 4 1 5 1 1 6 1 8 0z m-115 -2 c0 -1 0 -1 0 -2 0 -1 -2 -1 -5 -1 -3 0 -7 -1
-10 -2 -7 -4 -9 -6 -9 -10 0 -4 -2 -6 -4 -5 -1 0 -2 2 -3 4 -2 3 -2 4 0 8 3 5
5 7 10 7 3 0 5 0 6 1 1 1 16 1 15 0z m80 -5 c0 -1 -6 -14 -7 -14 0 0 -1 -1 -1
-2 -1 -1 -2 -2 -4 -3 -1 0 -5 -3 -8 -5 -8 -6 -14 -10 -15 -10 0 0 -1 -1 -2 -2
-1 -1 -5 -3 -8 -5 -3 -2 -8 -5 -10 -6 -4 -3 -6 -3 -4 0 0 1 1 3 1 3 0 2 6 8 8
8 1 0 3 1 4 2 0 1 2 2 3 2 0 0 2 1 3 2 0 1 2 2 3 2 1 0 3 2 6 4 2 2 6 4 7 4 1
1 2 2 2 2 0 1 1 1 2 2 4 1 8 5 12 10 5 8 6 9 8 6z m89 -1 c0 -2 -1 -3 -3 -1 0
2 1 4 2 4 1 -1 1 -2 1 -3z m-167 -3 c1 -1 0 -3 -1 -5 -2 -4 -1 -8 4 -10 1 -2
3 -3 3 -4 1 0 -1 -3 -4 -6 -3 -3 -6 -7 -8 -9 -1 -1 -3 -3 -4 -4 -3 0 -9 4 -11
11 -3 6 -4 9 -1 11 1 1 2 4 2 7 0 3 1 5 2 5 2 1 3 2 3 3 1 0 4 1 6 1 2 0 5 1
7 1 1 0 2 -1 2 -1z m147 -20 c2 -1 1 -2 -4 -2 -5 -1 -8 1 -6 3 1 2 8 1 10 -1z
m-7 -16 c1 -1 2 -4 3 -5 2 -1 3 -3 3 -6 0 -4 0 -5 2 -5 4 0 2 -6 -2 -6 -3 0
-9 5 -9 7 0 1 -1 2 -1 3 -1 0 -3 2 -4 3 -2 2 -4 3 -7 3 -4 0 -7 2 -7 4 0 2 8
5 15 5 7 0 7 0 7 -3z m32 -10 c0 -1 2 -2 3 -2 3 -2 3 -5 1 -6 -3 0 -8 5 -8 7
0 2 2 3 4 1z m-82 -6 c7 -3 4 -9 -3 -6 -4 1 -4 2 -4 6 1 2 2 3 7 0z m30 1 c0
-1 -1 -2 -1 -2 -3 0 -2 2 1 3 0 0 0 -1 0 -1z m-133 -8 c0 -3 -5 -5 -6 -2 0 1
2 4 4 4 1 0 2 -1 2 -2z m88 -2 c0 -1 -1 -1 -2 -1 -1 0 -2 0 -2 1 0 1 1 1 2 1
1 0 2 0 2 -1z m38 -1 c2 -1 2 -2 1 -3 -3 -3 -7 0 -6 4 1 2 3 1 5 -1z m26 1 c0
-1 -4 -4 -7 -4 -1 0 -3 1 -5 1 -2 1 -2 1 4 3 7 1 8 1 8 0z m33 0 c0 -1 -3 -1
-6 -1 -4 0 -6 0 -7 -2 -3 -3 -6 -2 -6 1 0 1 0 2 5 2 7 1 14 1 14 0z m-204 -4
c0 -2 -4 -3 -6 -1 -2 2 -1 3 2 3 2 0 4 -1 4 -2z m83 -3 c0 -10 0 -11 -1 -12
-1 -1 -2 -2 -3 -2 -2 0 -2 0 -1 4 0 4 0 5 -1 6 -2 2 -2 2 -6 1 -4 -2 -5 -2 -4
1 2 4 6 6 12 6 3 0 4 -1 4 -4z m10 3 c3 -1 2 -5 0 -6 -2 0 -3 0 -4 0 -1 1 -1
4 0 6 2 1 2 1 4 0z m28 -6 c2 -1 4 -2 5 -2 0 -1 4 -1 8 -2 3 0 8 0 10 -1 l3 0
-3 -1 c-4 -2 -32 2 -35 4 -3 3 4 4 12 2z m-98 -3 c0 0 0 -1 -1 -1 -2 0 -2 0
-1 1 0 2 2 2 2 0z m147 -1 c2 -1 3 -1 4 -1 1 -1 -2 -3 -4 -3 -3 0 -5 -4 -5 -7
1 -3 8 -4 16 -3 6 1 7 -1 2 -2 -4 0 -8 -5 -8 -7 1 -1 3 -3 5 -4 3 -2 3 -3 3
-5 -1 -3 0 -5 5 -6 l4 0 -3 -1 c-2 0 -6 -1 -8 -1 -3 0 -6 -1 -7 -2 -3 -1 -6
-1 -9 0 -2 1 -3 2 -3 5 l1 5 -5 0 c-4 0 -5 1 -6 3 -2 2 -2 3 -1 5 2 4 4 10 4
16 1 5 6 9 10 8 1 0 4 0 5 0z m-123 -2 l6 0 -4 -4 c-2 -3 -3 -5 -3 -6 1 0 1
-2 1 -3 0 0 1 -1 3 -1 1 0 4 -1 6 -2 2 -2 4 -3 6 -2 8 1 4 -6 -4 -7 -2 -1 -3
-2 -4 -5 0 -3 1 -6 4 -6 2 -1 0 -1 -3 -1 -4 0 -5 0 -6 2 -1 1 -3 2 -3 2 -1 0
-2 1 -4 2 -3 3 -6 3 -11 0 -4 -2 -9 -2 -10 1 -1 2 2 3 8 3 4 0 5 0 6 2 2 3 1
7 -1 8 -3 0 -2 1 0 4 1 1 2 3 2 5 0 2 0 3 -2 4 -3 0 -3 1 -2 4 0 1 1 1 4 0 3
0 7 0 11 0z m155 0 c1 -2 -2 -4 -6 -4 -2 0 -3 0 -3 2 0 1 1 2 1 2 3 1 7 1 8 0z
m-97 -4 c2 -1 7 -2 14 -3 14 -1 15 -2 8 -9 -7 -7 -9 -9 -10 -9 -1 0 -5 -4 -9
-8 -6 -7 -8 -8 -11 -8 -4 0 -5 2 -1 6 3 4 4 7 1 9 -1 2 -1 2 2 6 2 2 4 4 4 5
0 1 -3 3 -7 3 -2 0 -3 0 -3 1 0 1 7 8 9 8 0 0 2 -1 3 -1z m-23 -21 c0 -1 0 -2
-1 -2 -1 -1 -1 0 -1 1 0 1 0 2 1 2 1 0 1 -1 1 -1z m69 -8 c-1 -3 -4 -4 -4 -2
0 2 4 6 5 5 1 0 0 -1 -1 -3z m-73 2 c0 -1 -1 -2 -6 -2 -3 -1 -4 -1 -4 0 0 1 1
2 1 2 2 1 8 1 9 0z m-79 -5 c0 -1 -4 -3 -7 -3 -3 0 -4 2 -3 4 2 1 9 1 10 -1z
m20 -8 c1 -2 2 -3 11 -3 5 0 10 -1 10 -1 1 -1 -6 -11 -7 -10 -3 0 -7 2 -9 4
-1 1 -3 4 -5 6 -3 3 -4 4 -4 5 1 3 3 2 4 -1z m63 1 c0 -1 -2 -2 -3 -2 0 1 1 3
2 3 1 0 1 0 1 -1z m115 -2 c0 0 0 -2 0 -4 0 -5 -1 -3 -2 2 0 2 1 4 1 4 1 -1 1
-1 1 -2z m-59 -3 c2 -1 4 -2 6 -3 3 -1 3 -1 3 -5 0 -4 0 -5 -3 -5 -3 0 -5 -1
-9 -6 -8 -7 -13 -10 -15 -10 -2 1 -1 2 1 5 1 1 2 3 2 6 0 4 1 6 5 12 3 5 6 8
6 8 1 0 3 -1 4 -2z m-47 -4 c0 -1 -5 -5 -8 -6 -1 0 -4 0 -5 1 -1 1 -1 1 3 3 4
3 10 4 10 2z m78 0 c0 -1 -1 -2 -3 -2 -2 -1 -3 -2 -4 -4 -2 -3 -4 -4 -5 -3 -2
1 -1 4 2 7 2 2 3 3 6 3 3 0 4 0 4 -1z m16 -4 c0 -1 -1 -1 -2 -1 -2 0 -3 0 -3
1 -1 1 0 1 2 1 2 0 3 0 3 -1z m-86 -5 c4 -3 4 -5 0 -5 -3 0 -9 4 -7 6 1 2 5 1
7 -1z m-76 -1 c3 -1 5 -2 5 -2 0 -1 -2 -1 -3 -2 -2 -1 -4 -2 -4 -3 0 -2 -2 -2
-5 1 -2 2 -3 3 -4 3 -1 0 -1 2 0 4 2 1 5 1 11 -1z m-14 -6 c-1 -2 -6 -3 -7 -1
-2 2 0 3 4 3 4 0 4 0 3 -2z m177 -2 c0 -3 4 -5 7 -5 5 0 4 -1 -1 -4 -7 -3 -8
-2 -9 2 -1 2 -1 3 -3 3 -4 0 -5 2 -1 5 3 3 6 2 7 -1z m-70 1 c-2 -2 -5 -2 -5
-1 0 1 2 2 5 2 2 0 2 0 0 -1z m31 -7 c0 -4 7 -4 11 -1 2 2 4 3 6 2 7 -1 11 -4
7 -6 -2 -1 -4 -6 -3 -8 0 0 2 -1 3 -1 4 -1 4 -3 0 -6 -2 -1 -5 -1 -14 -1 -11
0 -12 -1 -13 -2 -1 -1 -2 -2 -3 -2 0 0 -2 -1 -4 -1 -1 -1 -7 -2 -12 -2 -9 -1
-9 -1 -8 1 1 3 3 7 6 8 4 3 9 6 11 10 6 9 13 14 13 9z m-104 -8 c-1 -5 -1 -7
-4 -10 -4 -5 -8 -7 -7 -4 1 1 1 5 2 10 0 4 1 8 1 8 1 1 3 1 5 1 l3 0 0 -5z
m36 1 c0 -1 -1 -2 -3 -2 -3 0 -4 1 -2 2 1 1 5 1 5 0z m123 -8 c4 0 1 -2 -5 -3
-7 0 -9 1 -8 3 1 2 5 2 13 0z m-127 -11 c0 -12 -1 -14 -6 -15 -4 -1 -6 0 -6 3
0 1 -1 2 -2 3 -1 2 0 5 2 5 2 0 9 7 9 9 0 3 1 5 2 5 1 0 2 -3 1 -10z m110 6
c0 -1 -1 -1 -3 -1 -1 0 -2 0 -1 1 0 1 1 1 2 1 1 0 2 0 2 -1z m20 -5 c0 -1 -1
-1 -2 -1 -2 0 -3 0 -3 1 0 1 1 1 3 1 1 0 2 0 2 -1z m-100 -3 c1 -1 1 -2 -1 -4
-2 -3 -3 -6 -1 -8 1 -1 1 -1 -1 -2 -4 -1 -5 -1 -5 1 -1 2 1 11 3 13 2 1 3 1 5
0z m44 0 c0 -1 0 -2 -1 -2 -1 0 -2 0 -2 2 0 1 3 1 3 0z m-95 -4 c0 -1 0 -2 -1
-2 -1 0 -1 1 -1 2 0 0 0 1 1 1 1 0 1 -1 1 -1z m119 0 c1 0 2 -1 1 -1 0 -1 -6
-1 -6 0 0 2 2 3 5 1z m-46 -4 c0 0 0 -1 -1 -2 -1 -2 -4 0 -3 3 1 1 3 1 4 -1z
m23 1 c1 -1 1 -1 -1 -1 -2 0 -3 0 -3 1 -1 1 1 1 4 0z m-102 -5 c0 -2 -1 -3 -4
-5 -2 -2 -2 -5 1 -6 2 -1 13 0 18 2 3 0 3 0 3 -2 0 -1 -1 -2 -3 -3 -1 0 -4 -1
-5 -1 -3 -1 -7 -1 -13 1 -4 1 -5 2 -7 5 -1 4 -1 7 0 9 2 2 10 1 10 0z"/>
</g>
</svg>
